<svg version="1.0" xmlns="http://www.w3.org/2000/svg"
 width="128.000000pt" height="128.000000pt" viewBox="0 0 128.000000 128.000000"
 preserveAspectRatio="xMidYMid meet">

<g transform="translate(0.000000,128.000000) scale(0.100000,-0.100000)"
 stroke="none">
<path d="M77 1202 c-12 -13 -17 -37 -17 -85 l0 -67 205 0 205 0 0 85 0 85
-188 0 c-170 0 -191 -2 -205 -18z m108 -67 c0 -22 -31 -33 -47 -17 -17 17 -1
44 24 40 15 -2 23 -10 23 -23z m108 13 c7 -22 -4 -38 -28 -38 -13 0 -25 6 -28
13 -7 21 4 37 28 37 13 0 25 -6 28 -12z m102 -13 c0 -22 -31 -33 -47 -17 -17
17 -1 44 24 40 15 -2 23 -10 23 -23z"/>
<path d="M520 1135 l0 -85 350 0 350 0 0 68 c0 108 22 102 -368 102 l-332 0 0
-85z m595 0 c0 -19 -8 -20 -239 -23 -142 -1 -244 2 -249 7 -5 5 -7 17 -4 26 6
13 35 15 249 13 235 -3 243 -4 243 -23z"/>
<path d="M60 647 c0 -330 1 -355 18 -370 17 -15 57 -17 375 -17 l357 0 0 53
c0 53 -1 54 -48 85 -53 34 -96 89 -118 149 -18 52 -17 150 2 206 20 60 84 131
148 165 44 23 63 27 136 27 69 0 93 -4 127 -23 62 -33 111 -79 138 -131 l24
-46 1 128 0 127 -580 0 -580 0 0 -353z m217 277 c23 -23 25 -31 21 -81 -6 -69
-22 -83 -95 -83 -72 0 -93 21 -93 93 0 77 18 95 98 96 33 1 49 -5 69 -25z
m303 -19 c10 -12 10 -18 0 -30 -9 -11 -34 -15 -100 -15 -101 0 -120 5 -120 30
0 25 12 28 116 29 70 1 94 -3 104 -14z m-30 -100 c24 -29 -5 -45 -85 -45 -86
0 -105 6 -105 30 0 25 12 28 101 29 57 1 80 -3 89 -14z m-266 -107 c20 -29 20
-107 0 -136 -13 -19 -24 -22 -79 -22 -76 0 -95 18 -95 90 0 72 19 90 95 90 55
0 66 -3 79 -22z m241 -33 c0 -18 -8 -20 -74 -23 -77 -3 -98 5 -87 33 5 13 19
15 83 13 70 -3 78 -5 78 -23z m18 -87 c10 -31 -5 -38 -88 -38 -84 0 -102 7
-91 35 7 20 172 22 179 3z m-266 -104 c23 -23 25 -31 21 -81 -6 -69 -22 -83
-95 -83 -72 0 -93 21 -93 93 0 77 18 95 98 96 33 1 49 -5 69 -25z m303 -19
c10 -12 10 -18 0 -30 -9 -11 -34 -15 -100 -15 -101 0 -120 5 -120 30 0 25 12
28 116 29 70 1 94 -3 104 -14z m100 -100 c10 -12 10 -18 0 -30 -10 -12 -40
-15 -150 -15 -76 0 -145 3 -154 6 -19 7 -21 40 -3 47 6 3 76 6 153 6 114 1
144 -2 154 -14z"/>
<path d="M170 855 c0 -33 2 -35 35 -35 33 0 35 2 35 35 0 33 -2 35 -35 35 -33
0 -35 -2 -35 -35z"/>
<path d="M170 630 c0 -39 1 -40 35 -40 34 0 35 1 35 40 0 39 -1 40 -35 40 -34
0 -35 -1 -35 -40z"/>
<path d="M170 405 c0 -33 2 -35 35 -35 33 0 35 2 35 35 0 33 -2 35 -35 35 -33
0 -35 -2 -35 -35z"/>
<path d="M854 886 c-184 -60 -233 -297 -88 -425 92 -81 232 -83 324 -3 170
145 80 420 -143 438 -29 2 -71 -2 -93 -10z m212 -167 c9 -16 -155 -179 -181
-179 -25 0 -100 74 -91 89 12 18 38 12 66 -14 l26 -25 69 70 c67 67 96 83 111
59z"/>
<path d="M1212 534 c-6 -31 -70 -108 -113 -136 -49 -31 -49 -32 -49 -85 l0
-53 68 0 c100 0 103 6 99 161 -1 68 -4 119 -5 113z"/>
<path d="M858 243 c-3 -125 3 -156 38 -172 35 -16 47 -14 78 10 26 20 26 22
26 145 l0 124 -69 0 -70 0 -3 -107z"/>
</g>
</svg>
